<?xml version="1.0" encoding="utf-8"?>
<!-- Generator: Adobe Illustrator 16.0.0, SVG Export Plug-In . SVG Version: 6.00 Build 0)  -->
<!DOCTYPE svg PUBLIC "-//W3C//DTD SVG 1.1//EN" "http://www.w3.org/Graphics/SVG/1.1/DTD/svg11.dtd">
<svg version="1.1" id="图层_1" xmlns="http://www.w3.org/2000/svg" xmlns:xlink="http://www.w3.org/1999/xlink" x="0px" y="0px"
	 width="40px" height="40px" viewBox="0 0 40 40" enable-background="new 0 0 40 40" xml:space="preserve">
<circle fill="#FFBE36" cx="20" cy="20" r="19.438"/>
<path fill="#FFFFFF" d="M17.51,11.265h-5.171c-1.207,0-2.188,0.981-2.188,2.188v14.718c0,1.206,0.981,2.188,2.188,2.188h5.171
	c1.207,0,2.188-0.981,2.188-2.188V13.453C19.698,12.247,18.717,11.265,17.51,11.265z M17.709,18.425H12.14v-1.193h5.569V18.425z
	 M17.709,16.436H12.14v-1.193h5.569V16.436z M17.709,14.447H12.14v-1.193h5.569V14.447z M20.494,28.171
	c0,1.206,0.981,2.188,2.188,2.188h5.171c1.207,0,2.188-0.981,2.188-2.188v-6.406h-9.547V28.171z M23.312,22.602
	c0.385,0,0.696,0.313,0.696,0.697c0,0.383-0.312,0.695-0.696,0.695s-0.696-0.313-0.696-0.695
	C22.615,22.914,22.927,22.602,23.312,22.602L23.312,22.602z M27.853,11.265h-5.171c-1.206,0-2.188,0.981-2.188,2.188v7.119h9.547
	v-7.118C30.041,12.247,29.06,11.265,27.853,11.265z M23.312,19.619c-0.385,0-0.696-0.312-0.696-0.696s0.312-0.696,0.696-0.696
	s0.696,0.312,0.696,0.696S23.696,19.619,23.312,19.619L23.312,19.619z"/>
</svg>
