<?xml version="1.0" encoding="utf-8"?>
<!-- Generator: Adobe Illustrator 16.0.0, SVG Export Plug-In . SVG Version: 6.00 Build 0)  -->
<!DOCTYPE svg PUBLIC "-//W3C//DTD SVG 1.1//EN" "http://www.w3.org/Graphics/SVG/1.1/DTD/svg11.dtd">
<svg version="1.1" id="图层_1" xmlns="http://www.w3.org/2000/svg" xmlns:xlink="http://www.w3.org/1999/xlink" x="0px" y="0px"
	 width="40px" height="40px" viewBox="0 0 40 40" enable-background="new 0 0 40 40" xml:space="preserve">
<circle fill="#50A3EF" cx="20" cy="20" r="19.438"/>
<g>
	<path fill="#FFFFFF" d="M30.221,19.552h-0.128c-0.254-0.896-0.768-2.433-2.049-4.354l0.128-1.666
		c-1.408,1.281-4.995,1.92-8.453,1.92h-0.385c-0.64,0.385-1.536,1.153-1.664,1.41c-0.256,0.384-0.256,0.896-0.129,1.408
		c0.129,0.896,0.384,2.178,0,2.689c0,0.128-0.127,0.128-0.256,0.128c-0.128,0-0.384,0-0.512-0.128
		c-0.127-0.255-0.256-0.512-0.256-0.769c0-0.768,0.128-1.665,0-2.433c0-0.256,0-0.385-0.128-0.64c0-0.256-0.256-0.513-0.513-0.641
		c-0.257-0.129-0.512-0.129-0.641,0.128l-0.127,0.127c0,0.129-0.129,0.256-0.129,0.513c-0.255,1.665,0.897,3.33,0.256,4.867
		c-0.127,0.513-0.511,0.898-1.024,0.641c-0.256-0.128-0.384-0.257-0.513-0.384c-0.641-1.153-0.384-2.435-0.255-3.715
		c0.128-1.152,0.512-2.177-0.513-2.946c-0.127-0.128-0.897-1.024-0.897-1.152c-0.255-0.256-0.511-0.64-0.768-1.024l1.281,12.166
		c0.127,0.641,0.384,1.28,0.896,1.666c1.025,1.025,3.202,2.434,6.275,2.434c3.075,0,5.25-1.538,6.277-2.434
		c0.51-0.386,0.768-1.025,0.896-1.666l0.255-1.921c-2.944-0.511-5.12-2.688-6.146-3.969c-0.768-0.129-1.408-0.768-1.408-1.665
		s0.768-1.665,1.663-1.665c0.898,0,1.666,0.768,1.666,1.665v0.384c0.896,1.024,2.435,2.689,4.611,3.073l0.512-5.251
		c0.769,1.41,1.153,2.562,1.409,3.33l-0.385,0.385l-1.151,2.305c-3.46-0.257-5.764-3.33-6.403-4.227
		c-0.129-0.256-0.386-0.256-0.514-0.129c-0.128,0-0.255,0.256-0.128,0.513c0.642,1.024,3.075,4.354,6.914,4.484
		c0.131,0.125,0.258,0.383,0.514,0.51c0.513,0.256,1.025,0.131,1.153-0.255l1.153-2.306C30.861,20.449,30.733,19.809,30.221,19.552
		L30.221,19.552z"/>
	<path fill="#FFFFFF" d="M13.828,13.661c0-0.128-0.129-0.128-0.129-0.256c0-0.768,2.69-1.408,5.893-1.408s5.892,0.64,5.892,1.408
		c0,0.128,0,0.128-0.128,0.256c1.536-0.384,2.431-1.024,2.431-1.408c0-0.897-3.199-2.05-8.194-2.05c-4.996,0-8.198,1.281-8.198,2.05
		C11.65,12.764,12.419,13.277,13.828,13.661L13.828,13.661z"/>
</g>
</svg>
