<?xml version="1.0" encoding="utf-8"?>
<!-- Generator: Adobe Illustrator 16.0.0, SVG Export Plug-In . SVG Version: 6.00 Build 0)  -->
<!DOCTYPE svg PUBLIC "-//W3C//DTD SVG 1.1//EN" "http://www.w3.org/Graphics/SVG/1.1/DTD/svg11.dtd">
<svg version="1.1" id="图层_1" xmlns="http://www.w3.org/2000/svg" xmlns:xlink="http://www.w3.org/1999/xlink" x="0px" y="0px"
	 width="40px" height="40px" viewBox="0 0 40 40" enable-background="new 0 0 40 40" xml:space="preserve">
<circle fill="#A1C53D" cx="20" cy="20" r="19.438"/>
<path fill="#FFFFFF" d="M22.712,15.783l-6.054-3.501c-0.315-0.181-0.714-0.074-0.898,0.24c-0.181,0.315-0.073,0.716,0.242,0.897
	l6.055,3.501c0.313,0.181,0.714,0.074,0.895-0.239C23.132,16.365,23.024,15.964,22.712,15.783L22.712,15.783z M27.326,20.473
	l0.755,0.438c0.985,0.567,1.341,2.044,0.78,3.018l-1.291,2.244c-0.262,0.46-0.922,0.735-1.416,0.866
	c-0.511,0.134-1.071,0.222-1.567-0.064l-6.436-3.719c-0.328-0.19-0.851-0.28-1.037,0.047l-0.135,0.254l0.528,0.281
	c0.157,0.091,0.313,0.264,0.362,0.438c0.049,0.176,0.108,0.408,0.018,0.564l-0.291,0.501v0.003l-2.04,3.677
	c-0.565,0.981-1.477,1.482-2.771,0.734c-1.291-0.746-1.315-1.813-0.755-2.786l2.108-3.594v-0.002l0.291-0.504
	c0.186-0.323,0.648-0.409,0.978-0.218l0.511,0.291l0.145-0.25c0.56-0.973,1.76-1.144,2.746-0.574l6.433,3.72
	c0.328,0.19,1.008,0.005,1.193-0.321c0,0,1.146-1.987,1.311-2.274c0.169-0.207,0.013-0.992-0.32-1.195l-0.755-0.438l-0.655,1.138
	c-0.272,0.471-0.427,0.753-0.956,0.893c-0.529,0.136-0.957,0.021-1.434-0.252l-9.839-5.69c-0.983-0.567-1.578-1.638-1.018-2.611
	l2.035-3.533c0.542-0.944,1.846-1.286,2.8-0.736l9.857,5.69c0.474,0.274,0.818,0.717,0.963,1.245
	c0.146,0.528-0.174,1.11-0.442,1.585L27.326,20.473z"/>
</svg>
