<?xml version="1.0" encoding="utf-8"?>
<!-- Generator: Adobe Illustrator 16.0.0, SVG Export Plug-In . SVG Version: 6.00 Build 0)  -->
<!DOCTYPE svg PUBLIC "-//W3C//DTD SVG 1.1//EN" "http://www.w3.org/Graphics/SVG/1.1/DTD/svg11.dtd">
<svg version="1.1" id="图层_1" xmlns="http://www.w3.org/2000/svg" xmlns:xlink="http://www.w3.org/1999/xlink" x="0px" y="0px"
	 width="63.708px" height="16.063px" viewBox="0 0 63.708 16.063" enable-background="new 0 0 63.708 16.063" xml:space="preserve">
<g>
	<path fill="#FFFFFF" d="M3.898,11.74c0,1.297-0.336,2.785-1.024,3.762H0.312c0.833-1.185,1.121-2.673,1.121-3.762V2.841
		c0-0.592,0.496-1.072,1.088-1.072h5.282V0.36h2.465v1.409h5.202v0.912H4.506c-0.336,0-0.608,0.272-0.608,0.608V11.74z M4.65,10.124
		c0-0.593,0.48-1.073,1.057-1.073h2.593V3.225h2.434v2.193h4.386v0.896h-4.386v2.736h3.457c0.593,0,1.072,0.48,1.072,1.073v4.21
		c0,0.576-0.479,1.057-1.072,1.057H5.707c-0.576,0-1.057-0.48-1.057-1.057V10.124z M12.83,10.573c0-0.336-0.272-0.608-0.608-0.608
		h-4.53c-0.336,0-0.607,0.272-0.607,0.608v3.297c0,0.336,0.271,0.608,0.607,0.608h4.53c0.336,0,0.608-0.272,0.608-0.608V10.573z"/>
	<path fill="#FFFFFF" d="M16.296,5.706c0.496-1.745,0.832-3.537,1.009-5.442h2.305c-0.08,0.768-0.176,1.504-0.288,2.225h1.937v0.913
		h-2.112c-0.145,0.8-0.337,1.568-0.545,2.305H16.296z M21.258,15.487h-2.545c-0.561,0-1.009-0.48-1.009-1.072v-3.426h-1.296v-0.912
		h1.296V7.131h-1.296V6.202h4.85v0.929H20.01v2.945h1.248v0.912H20.01v2.961c0,0.353,0.256,0.625,0.576,0.625h0.672V15.487z
		 M25.564,15.487v-2.994H24.54v2.994h-2.4v-10.1c0-0.592,0.464-1.057,1.04-1.057h2.385V2.985h-3.521V2.057h3.521V0.264h2.417v1.792
		h3.506v0.928h-3.506V4.33h2.369c0.576,0,1.04,0.464,1.04,1.057v9.028c0,0.592-0.464,1.072-1.04,1.072h-1.905v-0.912h0.112
		c0.288,0,0.416-0.129,0.416-0.433v-1.649h-0.992v2.994H25.564z M24.54,8.107h1.024V5.242H25.1c-0.336,0-0.561,0.224-0.561,0.56
		V8.107z M24.54,11.58h1.024V9.02H24.54V11.58z M28.973,5.802c0-0.336-0.224-0.56-0.56-0.56h-0.433v2.865h0.992V5.802z
		 M27.981,11.58h0.992V9.02h-0.992V11.58z M28.973,1.641l-0.271-1.153h2.305l0.272,1.153H28.973z"/>
	<path fill="#FFFFFF" d="M32.393,8.075c1.376-2.193,2.593-4.802,3.553-7.731h2.354c-0.961,2.929-2.018,5.539-3.426,7.731H32.393z
		 M41.356,8.812h2.465l2.306,5.522c0.096,0.24,0.079,0.48-0.064,0.688c-0.159,0.225-0.368,0.336-0.624,0.336H34.297
		c-0.256,0-0.464-0.111-0.624-0.336c-0.144-0.191-0.177-0.432-0.08-0.672l3.714-8.019h2.416l-3.553,7.714
		c-0.049,0.08-0.032,0.193,0.031,0.272c0.064,0.08,0.16,0.128,0.24,0.128h6.852c0.096,0,0.191-0.048,0.256-0.128
		c0.048-0.096,0.064-0.192,0.031-0.288L41.356,8.812z M44.91,8.075c-1.393-2.193-2.448-4.802-3.425-7.731h2.353
		c0.96,2.929,2.177,5.539,3.554,7.731H44.91z"/>
	<path fill="#FFFFFF" d="M48.329,7.211h6.387V3.61h-3.041c-0.24,0.768-0.545,1.521-0.896,2.241h-2.449
		c0.801-1.665,1.328-3.393,1.633-5.154h2.434c-0.113,0.672-0.273,1.344-0.449,2h2.77V0.344h2.434v2.353h5.441V3.61h-5.441v3.602
		h6.322v0.912H48.329V7.211z M49.017,10.237c0-0.593,0.479-1.057,1.056-1.057h11.396c0.593,0,1.057,0.464,1.057,1.057v3.985
		c0,0.593-0.464,1.056-1.057,1.056H50.073c-0.576,0-1.056-0.463-1.056-1.056V10.237z M60.093,10.7c0-0.336-0.272-0.608-0.608-0.608
		h-7.427c-0.336,0-0.608,0.272-0.608,0.608v3.058c0,0.336,0.272,0.607,0.608,0.607h7.427c0.336,0,0.608-0.271,0.608-0.607V10.7z"/>
</g>
</svg>
